Coordinates
version=1
nRows=17
nColumns=36
inDegrees=yes

Units are S.I. units (second, meters, Newtons, ...)
If the header above contains a line with 'inDegrees', this indicates whether rotational values are in degrees (yes) or radians (no).

endheader
time	pelvis_tilt	pelvis_list	pelvis_rotation	pelvis_tx	pelvis_ty	pelvis_tz	hip_flexion_r	hip_adduction_r	hip_rotation_r	knee_angle_r	knee_angle_r_beta	ankle_angle_r	subtalar_angle_r	mtp_angle_r	hip_flexion_l	hip_adduction_l	hip_rotation_l	knee_angle_l	knee_angle_l_beta	ankle_angle_l	subtalar_angle_l	mtp_angle_l	lumbar_extension	lumbar_bending	lumbar_rotation	arm_flex_r	arm_add_r	arm_rot_r	elbow_flex_r	pro_sup_r	arm_flex_l	arm_add_l	arm_rot_l	elbow_flex_l	pro_sup_l
      5.72000000	    -14.82781459	     -1.71200936	     -0.20684056	     -0.15265875	      0.89330769	     -0.60813619	     32.57486434	     -0.97768003	      0.11834340	     35.35897489	      0.61713053	     13.40979710	    -16.14644201	     -7.49999987	     33.39905485	     -4.47247628	      6.24552814	     37.37147060	      0.65225521	     14.89048428	    -10.27321735	     -7.49999987	    -14.82386769	      2.30188200	     -2.25419840	    -11.93617911	    -12.20965160	     11.56325672	    130.21475639	    100.81296032	    -12.11828228	    -10.86763763	     15.05612931	    128.15188920	     92.07040686
      5.73000000	    -14.65049594	     -1.70734958	     -0.26569570	     -0.14985898	      0.89530985	     -0.60806253	     31.86467654	     -0.99811339	     -0.08334299	     34.69935319	      0.60561796	     13.33308525	    -16.02230248	     -7.49999987	     32.62110806	     -4.55533886	      6.01032990	     36.62768717	      0.63927374	     14.85740274	    -10.23559480	     -7.49999987	    -13.92778998	      2.30809513	     -2.23824245	    -12.30699867	    -12.26363697	     11.56346795	    130.29394765	    100.84225174	    -12.59715219	    -10.99394890	     15.06643365	    128.27842660	     92.09450267
      5.74000000	    -13.71531873	     -1.72159106	     -0.32764800	     -0.14694420	      0.89861202	     -0.60790699	     30.10322627	     -0.89982417	      0.08765553	     33.57076118	      0.58592031	     13.05257119	    -15.67069524	     -7.49999987	     30.80487289	     -4.62366850	      5.99088870	     35.49572296	      0.61951724	     14.63880211	    -10.16566122	     -7.49999987	    -13.99167294	      2.31038471	     -2.25264930	    -12.26792090	    -12.22178958	     11.53723789	    130.18648899	    100.93951237	    -12.75017783	    -11.02888193	     14.91802311	    128.33859837	     92.12580138
      5.75000000	    -13.38068244	     -1.69901914	     -0.36951743	     -0.14425540	      0.90067346	     -0.60779827	     29.18745395	     -0.90346205	      0.06046280	     32.82424303	      0.57289112	     12.94569974	    -15.48561743	     -7.49999987	     29.80549000	     -4.66103476	      5.86803739	     34.64603496	      0.60468738	     14.56999118	    -10.08059380	     -7.49999987	    -13.31894956	      2.28467641	     -2.27858075	    -12.49309927	    -12.22509072	     11.57456057	    130.22115869	    100.98041038	    -13.10871773	    -11.12068002	     14.83956779	    128.41566557	     92.14698547
      5.76000000	    -12.55729310	     -1.66819237	     -0.42517713	     -0.14141812	      0.90350911	     -0.60774607	     27.65428901	     -0.90298510	      0.09108086	     31.90687409	      0.55688001	     12.77126949	    -15.20428578	     -7.49999987	     28.17874828	     -4.68496164	      5.72660608	     33.63462935	      0.58703502	     14.39766624	    -10.00335079	     -7.49999987	    -13.26385319	      2.24472017	     -2.35607875	    -12.47504861	    -12.22484335	     11.62175646	    130.12930901	    101.04429283	    -13.35691940	    -11.13802254	     14.57182307	    128.46334614	     92.18078146
      5.77000000	    -11.85596995	     -1.63143298	     -0.45566184	     -0.13867975	      0.90604419	     -0.60766436	     26.30045916	     -0.92122922	      0.10046047	     31.08460312	      0.54252867	     12.62858159	    -14.93867126	     -7.49999987	     26.73261959	     -4.67908148	      5.63175732	     32.68955480	      0.57054036	     14.23639951	     -9.95305145	     -7.49999987	    -13.08366250	      2.17922040	     -2.44528932	    -12.53661278	    -12.24023534	     11.64356769	    130.04948851	    101.11102486	    -13.63925592	    -11.19411205	     14.33105685	    128.51379203	     92.21621007
      5.78000000	    -11.33066606	     -1.57792676	     -0.48258624	     -0.13611028	      0.90819333	     -0.60763107	     25.19457337	     -0.98240520	      0.01569917	     30.33880657	      0.52951207	     12.54134240	    -14.71567554	     -7.49999987	     25.54862088	     -4.66263150	      5.47075687	     31.84971690	      0.55588243	     14.10360372	     -9.90232423	     -7.49999987	    -12.71888821	      2.14860040	     -2.52825721	    -12.64068420	    -12.19935173	     11.70394437	    130.03880009	    101.19998425	    -13.92795427	    -11.23903974	     14.19818299	    128.63222110	     92.26431715
      5.79000000	    -10.77346706	     -1.52253713	     -0.51742967	     -0.13360327	      0.91034070	     -0.60749259	     24.04961000	     -1.02446708	      0.00086996	     29.58013535	      0.51627076	     12.43086751	    -14.44516391	     -7.49999987	     24.34204097	     -4.64592255	      5.37424226	     31.03450567	      0.54165431	     13.96317551	     -9.77496729	     -7.49999987	    -12.40885422	      2.08078783	     -2.58776045	    -12.73209980	    -12.13855266	     11.70837116	    129.95986459	    101.26039058	    -14.18254531	    -11.31146256	     14.04713233	    128.65552556	     92.29226511
      5.80000000	    -10.19895794	     -1.48687659	     -0.56150783	     -0.13116038	      0.91245195	     -0.60733773	     22.89933120	     -1.05018158	      0.02520266	     28.86009408	      0.50370366	     12.41121820	    -14.09730499	     -7.49999987	     23.12992929	     -4.63925741	      5.29949023	     30.24087772	      0.52780288	     13.80814844	     -9.73954433	     -7.49999987	    -12.16045940	      2.02702028	     -2.72344225	    -12.73985150	    -12.08929374	     11.77584600	    129.81522567	    102.01755476	    -14.49117942	    -11.32224276	     13.78206120	    128.73140407	     92.41595066
      5.81000000	     -9.68901685	     -1.45527402	     -0.59296826	     -0.12883970	      0.91444477	     -0.60718442	     21.81404940	     -1.05800304	      0.16023368	     28.12646736	      0.49089946	     12.27611832	    -13.90504244	     -7.49999987	     21.99775834	     -4.59728988	      5.35562189	     29.44113869	      0.51384481	     13.42930964	    -10.02837862	     -7.49999987	    -11.86170985	      1.98273374	     -2.82550614	    -12.80559234	    -12.03582021	     11.88573734	    129.91632006	     99.89115414	    -14.73865646	    -11.39140087	     13.65993187	    128.95696630	     90.67447147
      5.82000000	     -9.18327716	     -1.43644904	     -0.61968233	     -0.12657455	      0.91636827	     -0.60699202	     20.74899494	     -1.04514561	      0.21882052	     27.42060703	      0.47857988	     12.25212978	    -13.61443302	     -7.49999987	     20.92380435	     -4.60153940	      5.30780811	     28.74152919	      0.50163432	     13.35330488	     -9.80648539	     -7.49999987	    -11.59453417	      1.94660778	     -2.86339053	    -12.97505441	    -11.93402909	     11.74522352	    129.66385945	    102.21002798	    -14.89686613	    -11.44144242	     13.48256996	    128.83332471	     91.85125925
      5.83000000	     -8.64812610	     -1.42166309	     -0.71870145	     -0.12439461	      0.91827881	     -0.60682325	     19.64639239	     -0.99058724	      0.41274130	     26.63411692	      0.46485303	     11.86841491	    -13.74606840	     -7.49999987	     19.82757528	     -4.64128289	      5.08305736	     28.03384481	      0.48928289	     13.05219494	     -9.85601071	     -7.49999987	    -11.37420741	      1.92052767	     -2.84871868	    -13.08605352	    -11.90928535	     11.82779448	    129.76671760	    100.06516928	    -15.07916230	    -11.45354315	     13.37211270	    128.95392922	     90.67881820
      5.84000000	     -8.20701146	     -1.42291030	     -0.70495378	     -0.12236431	      0.91982725	     -0.60690129	     18.72543863	     -1.02508978	      0.22766869	     26.04897798	      0.45464043	     12.32536825	    -13.08349322	     -7.49999987	     18.91939187	     -4.61800949	      5.16997821	     27.50519119	      0.48005615	     13.27218826	     -9.54789236	     -7.49999987	    -11.09493542	      1.93928948	     -2.93344261	    -13.21444074	    -11.83667571	     12.00431858	    130.18148027	     95.27978430	    -15.28974783	    -11.50389411	     13.46473641	    129.34961314	     87.03005678
      5.85000000	     -7.68187247	     -1.43412835	     -0.68129199	     -0.12027398	      0.92158462	     -0.60691075	     17.64222299	     -1.03263450	      0.12334220	     25.30717709	      0.44169356	     12.20756275	    -12.67217561	     -7.49999987	     17.85059409	     -4.63989638	      5.10138309	     26.77894000	      0.46738067	     13.15232305	     -9.29858736	     -7.49999987	    -10.90683105	      1.96083160	     -2.98080071	    -13.39858494	    -11.76764414	     12.03282825	    130.42114258	     91.69538290	    -15.37874178	    -11.49941104	     13.45904912	    129.58368152	     84.23902991
      5.86000000	     -7.32072965	     -1.43768240	     -0.65598770	     -0.11842464	      0.92303172	     -0.60691983	     16.80970848	     -1.01477571	      0.14922009	     24.65699943	      0.43034582	     11.65847881	    -12.96601701	     -7.49999987	     17.01125952	     -4.60557015	      5.24583549	     26.13203381	      0.45609003	     12.54814100	     -9.79609448	     -7.49999987	    -10.59730998	      1.95443779	     -3.04814489	    -13.56729349	    -11.66006648	     11.53756097	    129.48493893	    102.47582594	    -15.58614590	    -11.42268533	     13.04696823	    128.64109042	     91.44361716
      5.87000000	     -6.89069291	     -1.46298234	     -0.63078485	     -0.11657888	      0.92441725	     -0.60701033	     15.89531000	     -0.99780098	      0.11020210	     24.00394877	      0.41894794	     11.50063248	    -12.76955586	     -7.49999987	     16.09159916	     -4.62365252	      5.28577624	     25.48446508	      0.44478782	     12.39438234	     -9.75802194	     -7.49999987	    -10.35074126	      1.99752460	     -3.02027057	    -13.81124629	    -11.59229572	     11.39882710	    129.50166141	    102.52275700	    -15.65936446	    -11.37204200	     12.91127578	    128.39952987	     92.59689960
      5.88000000	     -6.45894946	     -1.49007375	     -0.60864373	     -0.11481527	      0.92569333	     -0.60720072	     14.99039877	     -0.99272171	      0.02592903	     23.36513923	      0.40779861	     11.39532236	    -12.59162791	     -7.49999987	     15.18626792	     -4.64111314	      5.30712060	     24.85691689	      0.43383504	     12.29836379	     -9.65743345	     -7.49999987	    -10.11823181	      2.06794922	     -2.89351307	    -14.13063826	    -11.51495368	     11.17019118	    129.59666593	    102.32396265	    -15.63197136	    -11.34067514	     12.90552235	    128.17907388	     92.82839229
